<?xml version="1.0" encoding="utf-8"?>
<svg id="master-artboard" viewBox="0 0 990.2127685546875 899.574462890625" version="1.1" xmlns="http://www.w3.org/2000/svg" x="0px" y="0px" style="enable-background:new 0 0 1400 980;" width="990.2127685546875px" height="899.574462890625px"><rect id="ee-background" x="0" y="0" width="990.2127685546875" height="899.574462890625" style="fill: white; fill-opacity: 0; pointer-events: none;"/><g transform="matrix(1.632442831993103, 0, 0, 1.632442831993103, -637.3162841796875, -347.79162216186523)"><g transform="matrix(3.828125, 0, 0, 3.828125, 210.00002982399747, 0.000004458737294044113)"><path d="M 126 148 H 130 V 156 H 126 V 148 Z"/><path d="M 126 100 H 130 V 108 H 126 V 100 Z"/><path d="M 100 126 H 108 V 130 H 100 V 126 Z"/><path d="M 148 126 H 156 V 130 H 148 V 126 Z"/><path d="M 140.970001 142.970001 H 148.974001 V 146.970001 H 140.970001 V 142.970001 Z" transform="matrix(.7071 .7071 -.7071 .7071 144.96 -60.048)"/><path d="M 107.029999 109.029999 H 115.033998 V 113.029999 H 107.029999 V 109.029999 Z" transform="matrix(.7071 .7071 -.7071 .7071 111.02 -45.99)"/><path d="M 109.029999 140.970001 H 113.029999 V 148.974001 H 109.029999 V 140.970001 Z" transform="matrix(.7071 .7071 -.7071 .7071 135.03 -36.05)"/><path d="M 142.970001 107.029999 H 146.970001 V 115.033998 H 142.970001 V 107.029999 Z" transform="matrix(.7071 .7071 -.7071 .7071 120.97 -69.989)"/><path d="m153.47 196.04c-7.24 0-15.424-2.77-23.984-8.229-13.369-8.525-26.188-22.671-36.095-39.831s-15.748-35.333-16.447-51.174c-0.719-16.308 4.094-28.296 13.553-33.758s22.249-3.635 36.012 5.141c13.369 8.525 26.188 22.671 36.095 39.831s15.748 35.333 16.447 51.174c0.719 16.308-4.095 28.296-13.554 33.757-3.575 2.065-7.628 3.089-12.027 3.089zm-50.922-132.08c-3.711 0-7.094 0.845-10.051 2.552-8.104 4.678-12.208 15.374-11.558 30.117 0.671 15.21 6.323 32.737 15.916 49.351 9.592 16.614 21.943 30.271 34.78 38.458 12.443 7.935 23.757 9.727 31.861 5.05 8.104-4.678 12.208-15.374 11.558-30.117-0.671-15.21-6.323-32.737-15.916-49.351-9.592-16.614-21.943-30.271-34.78-38.458-7.903-5.04-15.351-7.602-21.81-7.602z"/><path d="m102.53 196.04c-4.4 0-8.451-1.023-12.027-3.088-9.459-5.461-14.272-17.45-13.554-33.757 0.699-15.841 6.54-34.015 16.447-51.174s22.726-31.305 36.095-39.831c13.762-8.775 26.553-10.604 36.012-5.141 9.459 5.461 14.272 17.45 13.554 33.757-0.699 15.841-6.54 34.015-16.447 51.174s-22.726 31.305-36.095 39.831c-8.56 5.458-16.744 8.229-23.985 8.229zm50.922-132.08c-6.459 0-13.906 2.562-21.811 7.602-12.837 8.187-25.188 21.844-34.78 38.458-9.593 16.614-15.245 34.14-15.916 49.351-0.65 14.743 3.454 25.439 11.558 30.117 8.102 4.677 19.417 2.885 31.861-5.05 12.837-8.187 25.188-21.844 34.78-38.458 9.593-16.614 15.245-34.14 15.916-49.351 0.65-14.743-3.454-25.439-11.558-30.117-2.955-1.706-6.34-2.552-10.05-2.552z"/><path d="m128 167.96c-19.814 0-38.474-4.029-52.541-11.344-14.483-7.531-22.459-17.694-22.459-28.616s7.976-21.085 22.459-28.616c14.067-7.315 32.727-11.344 52.541-11.344s38.474 4.029 52.541 11.344c14.483 7.531 22.459 17.694 22.459 28.616s-7.976 21.085-22.459 28.616c-14.067 7.315-32.727 11.344-52.541 11.344zm0-75.92c-39.149 0-71 16.131-71 35.96s31.851 35.96 71 35.96 71-16.131 71-35.96-31.851-35.96-71-35.96z"/><path d="M 143 128 A 15 15 0 0 1 128 143 A 15 15 0 0 1 113 128 A 15 15 0 0 1 128 113 A 15 15 0 0 1 143 128 Z" fill="#FF8C1A" style="fill: rgb(255, 213, 0);"/><path d="m128 145c-9.374 0-17-7.626-17-17s7.626-17 17-17 17 7.626 17 17-7.626 17-17 17zm0-30c-7.168 0-13 5.832-13 13s5.832 13 13 13 13-5.832 13-13-5.832-13-13-13z"/><path d="M 220.8195037841797 157.20965576171875" style="fill: rgb(255, 213, 0); fill-opacity: 1; stroke: rgb(0, 0, 0); stroke-opacity: 1; stroke-width: 0; paint-order: fill;"/><path d="M 218.37689208984375 334.91015625" style="fill: rgb(255, 213, 0); fill-opacity: 1; stroke: rgb(0, 0, 0); stroke-opacity: 1; stroke-width: 0; paint-order: fill;"/></g></g></svg>